<svg width="24" height="24" viewBox="0 0 24 24" fill="none" xmlns="http://www.w3.org/2000/svg">
<rect width="24" height="24" rx="4" fill="white"/>
<path fill-rule="evenodd" clip-rule="evenodd" d="M11.8312 3H18.75C19.9874 3 20.9999 4.00124 20.9999 5.23873V18.761C20.9999 19.9985 19.9987 20.9999 18.7612 20.9999H5.23877C4.00128 21.011 3.00003 20.0098 3.00003 18.761V11.8649L11.8312 3Z" fill="#00A0E9"/>
<path fill-rule="evenodd" clip-rule="evenodd" d="M3.00003 5.24998C3.00003 4.01249 4.01253 3 5.25002 3H11.865L3.00003 11.8762V5.24998Z" fill="white"/>
<path fill-rule="evenodd" clip-rule="evenodd" d="M7.16233 6.55496C7.19608 6.58871 7.25233 6.58871 7.28608 6.55496L7.52233 6.31872C7.55608 6.28497 7.55608 6.22872 7.52233 6.19497L6.71234 5.38498L8.25355 5.54248C8.26484 5.54248 8.29855 5.54248 8.32105 5.50873L8.61355 5.21623C8.66984 5.15998 8.62484 5.08123 8.56855 5.08123L6.93733 4.94623L6.84734 3.4725C6.84734 3.39375 6.75734 3.37125 6.71234 3.41625L6.44234 3.68624C6.41984 3.70874 6.41984 3.74249 6.41984 3.76499L6.50984 5.18248L5.78984 4.46249C5.75609 4.42874 5.69984 4.42874 5.66609 4.46249L5.42984 4.69874C5.39609 4.73249 5.39609 4.78874 5.42984 4.82249L7.16233 6.55496ZM5.24974 8.48999C5.27224 8.51249 5.32849 8.51249 5.35099 8.48999L5.59849 8.24249C5.63224 8.2087 5.62099 8.1637 5.59849 8.1412L4.86724 7.40997L5.73349 6.54372L6.46473 7.27497C6.48723 7.29747 6.53223 7.30872 6.56598 7.27497L6.81348 7.02747C6.83598 7.00497 6.83598 6.94872 6.81348 6.92622L5.04724 5.17124C5.02474 5.14874 4.96849 5.14874 4.94599 5.17124L4.70974 5.41873C4.67599 5.45248 4.68724 5.49748 4.70974 5.51998L5.40724 6.21748L4.55224 7.08372L3.8435 6.38623C3.821 6.36373 3.776 6.35248 3.74225 6.38623L3.49475 6.63372C3.47225 6.65622 3.47225 6.71247 3.49475 6.73497L5.24974 8.48999Z" fill="#00A0E9"/>
<path fill-rule="evenodd" clip-rule="evenodd" d="M8.45589 16.7249C5.91343 16.7249 5.14843 14.7337 6.43092 13.665C6.84717 13.2937 7.61217 13.1137 8.00589 13.08C9.54717 12.9225 10.9422 13.4962 12.6072 14.3062C11.4597 15.7799 9.95217 16.7249 8.45589 16.7249ZM15.0486 13.5412C15.6223 12.54 16.0835 11.3812 16.3985 10.1212H13.1474V8.95118H17.1073V8.30997H13.1474V6.37498H11.5499C11.2574 6.37498 11.2574 6.64498 11.2574 6.63373V8.30997H7.26362V8.95118H11.2799V10.11H7.97238V10.7625H14.3736C14.1373 11.55 13.8224 12.3037 13.4399 12.99C11.3699 12.3262 9.15358 11.7637 7.74737 12.1237C6.84737 12.3262 6.28487 12.72 5.94737 13.125C4.37238 15.0037 5.48613 17.8273 8.78238 17.8273C10.7174 17.8273 12.5849 16.7586 14.0249 14.9924C16.1848 16.0274 20.9885 17.9623 20.9885 17.9736V15.4649C20.9885 15.4536 19.9198 15.2399 17.5685 14.4524C16.8935 14.2274 16.016 13.9012 15.0486 13.5412Z" fill="white"/>
</svg>
