<svg width="24" height="24" viewBox="0 0 24 24" fill="none" xmlns="http://www.w3.org/2000/svg">
<rect width="24" height="24" rx="4" fill="white"/>
<path fill-rule="evenodd" clip-rule="evenodd" d="M5.01212 8.97144C5.01212 5.09869 8.14064 1.95922 11.9999 1.95922C15.8594 1.95922 18.9879 5.09869 18.9879 8.97144C18.9879 12.8441 15.8594 15.9836 11.9999 15.9836C8.14064 15.9836 5.01212 12.8441 5.01212 8.97144ZM10.1486 7.39843C9.99067 7.42149 9.83346 7.43477 9.67624 7.43477C9.4661 7.43477 9.25581 7.4117 9.04617 7.3607C8.71424 7.28103 8.41374 7.13498 8.13143 6.9477C8.09439 6.92325 8.02661 6.89879 8.00145 6.91556C7.96861 6.93792 7.95044 7.00081 7.94974 7.04763C7.94554 7.31387 7.94764 7.58082 7.94764 7.84776V8.83235C7.94764 9.53742 7.94764 10.2426 7.94694 10.9476C7.94694 11.0923 7.99656 11.2104 8.11954 11.2872C8.63667 11.6108 9.20196 11.7526 9.80974 11.7261C10.2835 11.7065 10.7412 11.6003 11.1892 11.4549C11.6874 11.2929 12.1815 11.1174 12.679 10.9504C13.1136 10.8044 13.556 10.6849 14.0137 10.6416C14.6825 10.5786 15.3127 10.6996 15.8892 11.0574C16.0227 11.1398 16.0793 11.1069 16.0793 10.9532V8.99871V8.83235C16.0793 8.23908 16.0786 7.6458 16.08 7.05322C16.08 6.88342 16.0074 6.76042 15.8683 6.66609C15.1129 6.15317 14.289 6.08888 13.4365 6.32787C12.939 6.46763 12.454 6.65491 11.969 6.8352C11.3729 7.05811 10.7845 7.30339 10.1486 7.39843Z" fill="#108EE9"/>
<mask id="mask0_4298_23116" style="mask-type:alpha" maskUnits="userSpaceOnUse" x="5" y="18" width="14" height="5">
<path fill-rule="evenodd" clip-rule="evenodd" d="M5.01212 18.9836H18.9878V22.0408H5.01212V18.9836Z" fill="white"/>
</mask>
<g mask="url(#mask0_4298_23116)">
<path fill-rule="evenodd" clip-rule="evenodd" d="M8.79894 20.2666C8.81508 19.5552 9.38529 18.9836 10.0876 18.9836C10.7906 18.9836 11.3608 19.5552 11.3762 20.2666H11.3782V20.7279V21.3847V22.0401H10.7332V21.3847H9.44258V22.0401H8.79758V21.3847V20.7279V20.2666H8.79894ZM9.44263 20.2925C9.4447 19.9319 9.73263 19.6398 10.0876 19.6398C10.4433 19.6398 10.7312 19.9319 10.7326 20.2925H10.7333V20.7279H9.44263V20.2925ZM16.4089 20.2666C16.4243 19.5552 16.9952 18.9836 17.6975 18.9836C18.3998 18.9836 18.9707 19.5552 18.9861 20.2666H18.9882V20.7279V21.3847V22.0401H18.3425V21.3847H17.0525V22.0401H16.4076V21.3847V20.7279V20.2666H16.4089ZM17.0521 20.2925V20.7279H18.3421V20.2925C18.34 19.9319 18.0521 19.6398 17.6971 19.6398C17.3421 19.6398 17.0542 19.9319 17.0521 20.2925ZM12.6112 20.2666C12.6273 19.5552 13.1968 18.9836 13.8995 18.9836C14.6025 18.9836 15.1727 19.5552 15.1888 20.2666H15.1902V22.0401H14.5452V20.2925C14.5424 19.9319 14.2552 19.6398 13.8995 19.6398C13.5446 19.6398 13.2566 19.9319 13.2548 20.2925V22.0401H12.6098V20.2666H12.6112ZM6.07918 18.9843C6.08268 18.9843 6.08687 18.9836 6.09106 18.9836C6.09456 18.9836 6.09875 18.9843 6.10224 18.9843H6.15116L6.14277 18.9857C6.94779 19.0143 7.59208 19.6852 7.59208 20.5119C7.59208 21.3393 6.94569 22.0115 6.13858 22.0373L6.15116 22.0408H5.65711H5.65501H5.01212V21.5733V19.4497V18.9843H5.65501H5.65711H6.07918ZM5.6551 19.6405V19.7621H5.6572V21.2603H5.6551V21.3819L6.14566 21.3812C6.5929 21.3518 6.94788 20.9745 6.94788 20.5119C6.94788 20.0478 6.5915 19.6698 6.14217 19.6426L5.6551 19.6405Z" fill="#108EE9"/>
</g>
</svg>
