<svg width="24" height="24" viewBox="0 0 24 24" fill="none" xmlns="http://www.w3.org/2000/svg">
<rect width="24" height="24" rx="4" fill="white"/>
<path fill-rule="evenodd" clip-rule="evenodd" d="M12.7154 16.4354C12.8724 16.4212 13.0322 16.4231 13.186 16.4599C13.3348 16.4941 13.4783 16.5573 13.5998 16.6511C13.7263 16.7485 13.8323 16.881 13.8724 17.038C13.8783 17.0029 13.8761 16.967 13.8765 16.932V16.6224C13.8761 16.5432 13.9498 16.4731 14.029 16.4768C14.1742 16.4768 14.3199 16.4763 14.4655 16.4768C14.5429 16.4795 14.6084 16.5519 14.6061 16.6293V19.4139C14.6057 19.439 14.6061 19.4654 14.5957 19.4886C14.5729 19.546 14.5129 19.5869 14.451 19.5846H14.029C13.9516 19.5865 13.8793 19.5205 13.8765 19.4426C13.8752 19.352 13.8784 19.2619 13.8747 19.1718C13.8383 19.2019 13.8064 19.2373 13.7714 19.2688C13.6576 19.373 13.5292 19.4622 13.3881 19.525C13.1173 19.6493 12.8037 19.6629 12.5169 19.5892C12.257 19.5228 12.019 19.3767 11.8392 19.1782C11.6375 18.9575 11.506 18.677 11.4505 18.3844C11.39 18.0676 11.4068 17.7348 11.5083 17.4281C11.5907 17.1809 11.7336 16.9529 11.9293 16.7799C12.146 16.5851 12.4264 16.4658 12.7154 16.4354ZM13.0321 17.0697L12.9424 17.0726C12.83 17.0826 12.7175 17.1108 12.6179 17.1659C12.5009 17.2278 12.4012 17.3211 12.3279 17.4313C12.0867 17.7949 12.104 18.3056 12.3602 18.657C12.4358 18.7595 12.5328 18.8473 12.647 18.9042C12.9037 19.0367 13.2301 19.0148 13.4704 18.8555C13.6657 18.7308 13.7981 18.5209 13.8468 18.2961C13.8832 18.1322 13.8851 17.9601 13.8541 17.7954C13.8272 17.6561 13.7726 17.521 13.6875 17.4072C13.607 17.2993 13.5004 17.211 13.3793 17.1527C13.2437 17.0885 13.0917 17.0594 12.9424 17.0726L13.0321 17.0697Z" fill="#002CB9"/>
<path fill-rule="evenodd" clip-rule="evenodd" d="M13.9718 8.69118C13.8954 8.59196 13.7825 8.52232 13.6605 8.49546C13.59 8.47953 13.5171 8.48545 13.4452 8.48454C12.8544 8.48363 12.264 8.48545 11.6732 8.48636C11.5617 8.48772 11.4502 8.52232 11.361 8.58922C11.2522 8.66706 11.1749 8.7868 11.1493 8.91787C11.1243 9.04895 11.1457 9.1887 11.2154 9.30249C11.29 9.429 11.4197 9.52183 11.5631 9.55191C11.6455 9.56965 11.7301 9.56374 11.8139 9.56509C12.1844 9.56284 12.5554 9.56284 12.9258 9.56419C12.919 9.59698 12.9076 9.62835 12.8958 9.65978C12.7707 10.0089 12.5363 10.3161 12.2372 10.5346C11.9796 10.7221 11.6737 10.8436 11.3569 10.8796C11.0524 10.916 10.7384 10.8755 10.4534 10.7617C10.188 10.6561 9.94727 10.4891 9.75609 10.277C9.56086 10.0639 9.41789 9.80449 9.33869 9.52729C9.25088 9.21692 9.24631 8.88374 9.32416 8.57102C9.39423 8.28791 9.53219 8.02209 9.72285 7.80179C9.88948 7.60789 10.097 7.44904 10.3278 7.33798C10.62 7.19642 10.9491 7.13452 11.2727 7.15773C11.5759 7.17867 11.8739 7.27517 12.1311 7.43766C12.2545 7.51732 12.4115 7.54007 12.5531 7.50321C12.6796 7.46998 12.7934 7.39078 12.8671 7.28245C12.9254 7.19642 12.9591 7.0931 12.9582 6.98886C12.9627 6.83775 12.8976 6.68664 12.7857 6.58605C12.7415 6.54463 12.6878 6.51413 12.6359 6.48273C12.1758 6.20963 11.6391 6.06761 11.1034 6.07672C10.7598 6.07945 10.4156 6.14044 10.0929 6.25924C9.8198 6.35938 9.56266 6.50229 9.33232 6.67981C8.8822 7.02528 8.53671 7.50548 8.35328 8.04257C8.14163 8.66296 8.13526 9.35437 8.34919 9.97523C8.44295 10.2474 8.57631 10.5063 8.74427 10.7399C9.05744 11.1764 9.49117 11.5251 9.98552 11.7349C10.5631 11.9829 11.2217 12.0357 11.8321 11.8874C12.2654 11.7831 12.6737 11.5769 13.0169 11.2924C13.3401 11.0239 13.6073 10.687 13.7902 10.3079C13.9846 9.91146 14.0851 9.4695 14.0857 9.02799C14.087 8.90694 14.0464 8.78628 13.9718 8.69118Z" fill="#007DFE"/>
<path fill-rule="evenodd" clip-rule="evenodd" d="M17.5512 18.3953C17.5048 18.2728 17.4228 18.1659 17.3228 18.0831C17.2144 17.9934 17.0888 17.9278 16.959 17.8764C16.8184 17.8204 16.6723 17.7799 16.5267 17.7394C16.3837 17.6993 16.2385 17.6624 16.1024 17.6015C16.0128 17.5609 15.9163 17.5009 15.8876 17.4003C15.8662 17.3215 15.8871 17.2319 15.944 17.1732C16.021 17.0958 16.1316 17.0689 16.2367 17.058C16.3414 17.0489 16.4488 17.0521 16.5494 17.0844C16.6437 17.1135 16.731 17.1727 16.7838 17.2574C16.8102 17.2965 16.8244 17.342 16.8371 17.3876C16.848 17.4272 16.8767 17.4604 16.9131 17.4799C16.9622 17.4981 17.0155 17.4913 17.0674 17.4931C17.1867 17.4945 17.3059 17.4913 17.4252 17.495C17.5057 17.4863 17.5694 17.4058 17.558 17.3252C17.5262 17.089 17.412 16.8614 17.229 16.7066C17.1125 16.606 16.9727 16.5346 16.8257 16.4909C16.6782 16.4477 16.5244 16.4267 16.371 16.428C16.0847 16.423 15.7911 16.4873 15.5489 16.6442C15.4489 16.7112 15.3587 16.7931 15.2905 16.8923C15.1999 17.0225 15.1475 17.1804 15.1498 17.3397C15.1466 17.4845 15.1766 17.6324 15.249 17.7585C15.3109 17.8682 15.4024 17.9588 15.5066 18.028C15.5986 18.0917 15.7005 18.139 15.8047 18.1795C15.9727 18.246 16.1489 18.2892 16.3232 18.3365C16.452 18.3725 16.5817 18.4067 16.7028 18.464C16.7665 18.4968 16.8325 18.5359 16.868 18.6005C16.8958 18.647 16.9003 18.7043 16.8872 18.7562C16.8726 18.8277 16.8207 18.8864 16.7597 18.9237C16.65 18.9893 16.5185 19.0075 16.3919 19.0057C16.2927 19.007 16.1926 18.987 16.1033 18.9442C16.0064 18.8996 15.9217 18.8236 15.878 18.7257C15.8594 18.6893 15.8562 18.6452 15.828 18.6142C15.7979 18.5773 15.7497 18.5578 15.7028 18.5591C15.5553 18.5596 15.4074 18.5591 15.2595 18.5596C15.188 18.56 15.122 18.6183 15.1134 18.6898C15.1083 18.743 15.1252 18.7949 15.1398 18.8454C15.168 18.9378 15.2117 19.0257 15.2658 19.1058C15.4069 19.3097 15.6191 19.4567 15.8508 19.54C16.1407 19.6438 16.4593 19.6592 16.7606 19.5988C16.9222 19.5637 17.0815 19.5059 17.218 19.4107C17.3077 19.3502 17.3887 19.2755 17.4516 19.1868C17.5339 19.073 17.5858 18.9374 17.6026 18.7976C17.6163 18.662 17.6013 18.5227 17.5512 18.3953ZM10.9913 18.5705C10.8738 18.5027 10.755 18.4362 10.6376 18.3684C10.5885 18.3384 10.5225 18.337 10.4733 18.3684C10.4405 18.3875 10.4228 18.4216 10.4019 18.4517C10.2212 18.7089 9.92024 18.8664 9.61167 18.9055C9.52611 18.9164 9.43913 18.9146 9.35312 18.9132C9.18245 18.9069 9.01222 18.8696 8.85607 18.7999C8.63716 18.702 8.45327 18.5332 8.32765 18.3297C8.23707 18.1831 8.18108 18.0161 8.15651 17.8459C8.12829 17.6456 8.13602 17.4385 8.18655 17.2419C8.26984 16.91 8.50015 16.6174 8.8051 16.4617C9.00631 16.3598 9.23432 16.3175 9.45874 16.3215C9.65172 16.3234 9.84516 16.368 10.0163 16.4576C10.1683 16.5368 10.3031 16.6492 10.4028 16.789C10.4201 16.8131 10.4346 16.8409 10.4588 16.8591C10.5065 16.8973 10.577 16.9023 10.6299 16.8728C10.7496 16.8026 10.8702 16.733 10.9899 16.6634C11.0646 16.6233 11.0896 16.52 11.045 16.449C10.7924 16.0662 10.3877 15.7931 9.94531 15.6789C9.72816 15.6224 9.50194 15.6065 9.27849 15.6201C9.05818 15.6356 8.83923 15.6798 8.63443 15.7635C8.42687 15.8468 8.23479 15.9688 8.06957 16.1195C7.90798 16.2655 7.76916 16.4372 7.6631 16.6274C7.48013 16.9533 7.40548 17.3334 7.42051 17.7052C7.42778 17.9151 7.4642 18.1244 7.53384 18.3224C7.62715 18.5878 7.78145 18.8304 7.97854 19.0302C8.14831 19.205 8.3504 19.3493 8.57343 19.4481C8.87838 19.5846 9.21748 19.6342 9.54977 19.6192C9.84606 19.6037 10.1401 19.5227 10.3995 19.3775C10.634 19.2487 10.8424 19.0698 10.9986 18.8518C11.0268 18.8104 11.0641 18.7703 11.0668 18.718C11.0736 18.6597 11.0423 18.5992 10.9913 18.5705ZM6.83659 17.3179C6.78744 17.2965 6.73282 17.302 6.68092 17.301H5.20437C5.10788 17.3006 5.02003 17.3835 5.01639 17.4799C5.01593 17.5742 5.01639 17.6679 5.01593 17.7617C5.01411 17.8245 5.04415 17.8896 5.09786 17.9242C5.13246 17.9497 5.1757 17.9593 5.21803 17.9574C5.57351 17.9574 5.92809 17.9569 6.28311 17.9579C6.25398 18.165 6.15294 18.3593 6.01047 18.5113C5.88075 18.6488 5.71826 18.7535 5.54393 18.8259C5.3655 18.8983 5.17297 18.9456 4.97952 18.9324C4.70187 18.9201 4.42513 18.8277 4.20757 18.6529C4.06282 18.5386 3.93993 18.3948 3.85754 18.2296C3.74011 17.9998 3.70597 17.7348 3.72827 17.4799C3.74057 17.3502 3.76879 17.2209 3.81886 17.1003C3.89988 16.8991 4.03642 16.7216 4.2062 16.5874C4.39418 16.4381 4.62814 16.3507 4.8671 16.3293C5.02732 16.3134 5.19163 16.3206 5.34911 16.3584C5.61584 16.4221 5.86482 16.5746 6.02777 16.7981C6.08375 16.8714 6.19709 16.8896 6.27537 16.8427C6.36959 16.7895 6.46336 16.7353 6.55667 16.6811C6.58762 16.6639 6.61447 16.6392 6.63177 16.6088C6.66909 16.5469 6.66727 16.4631 6.62449 16.4044C6.44788 16.1541 6.20209 15.9561 5.92854 15.82C5.63769 15.6757 5.31043 15.6096 4.98635 15.6161C4.81248 15.6188 4.63815 15.6397 4.4702 15.6843C4.20119 15.7531 3.94858 15.8828 3.73419 16.0594C3.5544 16.2082 3.39692 16.3858 3.2763 16.586C3.1534 16.7881 3.07102 17.0143 3.03097 17.2474C2.98864 17.4981 2.99 17.7558 3.03324 18.0061C3.07375 18.2319 3.15386 18.4504 3.27129 18.647C3.43697 18.9219 3.66819 19.1582 3.94175 19.3265C4.21895 19.4982 4.5412 19.5914 4.86528 19.6142C5.0387 19.6288 5.21439 19.6229 5.38553 19.5892C5.5371 19.5601 5.68503 19.5137 5.82704 19.4535C6.07647 19.3461 6.31133 19.1978 6.50068 19.002C6.70505 18.7863 6.84069 18.5127 6.92217 18.2282C6.95539 18.1085 6.98088 17.9856 6.98452 17.8609C6.98725 17.7526 6.9959 17.6447 6.99499 17.5368C6.99226 17.4408 6.92672 17.3498 6.83659 17.3179ZM21 17.844C21.0013 17.7467 20.9963 17.6488 20.9821 17.5523C20.9467 17.2929 20.8438 17.0371 20.664 16.8441C20.4906 16.6561 20.2498 16.5364 19.9981 16.4977C19.6745 16.4453 19.3281 16.495 19.0454 16.6665C18.984 16.703 18.9303 16.7499 18.8739 16.7927C18.8707 16.4103 18.8734 16.0275 18.8721 15.6452C18.8721 15.6078 18.8761 15.5687 18.8588 15.5341C18.8347 15.4809 18.7787 15.444 18.72 15.4449C18.5794 15.4449 18.4387 15.4444 18.2981 15.4449C18.2339 15.444 18.1738 15.4899 18.1547 15.5505C18.1456 15.581 18.1469 15.6133 18.1469 15.6452C18.1469 16.906 18.1465 18.1668 18.1474 19.428C18.1429 19.5104 18.2162 19.5851 18.2981 19.5846C18.441 19.5842 18.5844 19.5851 18.7273 19.5842C18.8052 19.5833 18.873 19.5122 18.8721 19.4349C18.873 18.9191 18.8721 18.4039 18.8725 17.8882C18.8752 17.693 18.9176 17.4909 19.0345 17.3307C19.1146 17.2191 19.233 17.1363 19.3655 17.0994C19.5161 17.0562 19.6799 17.0603 19.8284 17.1108C19.9435 17.1522 20.0455 17.2287 20.1174 17.3279C20.2093 17.454 20.2562 17.6074 20.2726 17.7612C20.2872 17.9178 20.2808 18.0757 20.2822 18.2328V19.4426C20.2822 19.519 20.3536 19.5842 20.4287 19.5846H20.8506C20.9107 19.5846 20.9658 19.5446 20.9895 19.4908C20.999 19.4517 20.9967 19.4112 20.9972 19.372V18.0849C20.9985 18.0048 20.9936 17.9242 21 17.844ZM13.9719 8.69118C13.8954 8.59196 13.7825 8.52232 13.6605 8.49546C13.5899 8.47953 13.5171 8.48545 13.4452 8.48454C12.8544 8.48363 12.2641 8.48545 11.6732 8.48636C11.5618 8.48772 11.4502 8.52232 11.361 8.58922C11.2522 8.66706 11.1748 8.7868 11.1494 8.91787C11.1243 9.04895 11.1457 9.1887 11.2153 9.30249C11.29 9.429 11.4197 9.52183 11.5631 9.55191C11.6455 9.56965 11.7301 9.56374 11.8139 9.56509C12.1844 9.56284 12.5553 9.56284 12.9259 9.56419C12.919 9.59698 12.9076 9.62835 12.8958 9.65978C12.7706 10.0089 12.5362 10.3161 12.2372 10.5346C11.9795 10.7221 11.6737 10.8436 11.3569 10.8796C11.0524 10.916 10.7383 10.8755 10.4534 10.7617C10.1881 10.6561 9.94725 10.4891 9.75607 10.277C9.56084 10.0639 9.41793 9.80449 9.33873 9.52729C9.25086 9.21692 9.24629 8.88374 9.32414 8.57102C9.39421 8.28791 9.53217 8.02209 9.7229 7.80179C9.88946 7.60789 10.097 7.44904 10.3278 7.33798C10.62 7.19642 10.9491 7.13452 11.2727 7.15773C11.5758 7.17867 11.874 7.27517 12.1311 7.43766C12.2545 7.51732 12.4115 7.54007 12.5531 7.50321C12.6796 7.46998 12.7934 7.39078 12.8671 7.28245C12.9254 7.19642 12.9591 7.0931 12.9581 6.98886C12.9627 6.83775 12.8977 6.68664 12.7857 6.58605C12.7415 6.54463 12.6878 6.51413 12.6359 6.48273C12.1757 6.20963 11.6391 6.06761 11.1034 6.07672C10.7597 6.07945 10.4156 6.14044 10.0929 6.25924C9.81984 6.35938 9.56264 6.50229 9.33237 6.67981C8.88218 7.02528 8.53671 7.50548 8.35328 8.04257C8.14163 8.66296 8.13525 9.35437 8.34919 9.97523C8.44295 10.2474 8.57631 10.5063 8.74427 10.7399C9.05742 11.1764 9.49122 11.5251 9.9855 11.7349C10.5631 11.9829 11.2217 12.0357 11.8321 11.8874C12.2654 11.7831 12.6737 11.5769 13.0169 11.2924C13.3401 11.0239 13.6072 10.687 13.7902 10.3079C13.9846 9.91146 14.0852 9.4695 14.0856 9.02799C14.087 8.90694 14.0465 8.78628 13.9719 8.69118Z" fill="#002CB9"/>
<path fill-rule="evenodd" clip-rule="evenodd" d="M14.1651 12.125C14.1014 11.9347 13.927 11.7817 13.7263 11.7567C13.5943 11.7367 13.4555 11.7713 13.3467 11.8482C13.2497 11.9206 13.1533 11.9943 13.049 12.0567C12.6507 12.3084 12.2024 12.4836 11.7368 12.5597C11.4746 12.6065 11.207 12.6161 10.9412 12.6052C10.6294 12.5879 10.3203 12.531 10.0236 12.4349C9.53242 12.2756 9.07864 12.0066 8.7004 11.6561C8.36995 11.3485 8.09458 10.9807 7.89931 10.5733C7.64624 10.0467 7.52653 9.45677 7.55202 8.87325C7.57023 8.40763 7.68038 7.94609 7.87564 7.52279C7.93163 7.40763 7.98761 7.29202 8.05588 7.18278C8.1187 7.07491 8.19061 6.97204 8.26481 6.87191C8.34309 6.7704 8.42366 6.66981 8.51287 6.57787C8.55293 6.52917 8.60117 6.48775 8.64441 6.44223C8.97938 6.11861 9.37769 5.86053 9.81007 5.68756C10.6781 5.34164 11.6826 5.35075 12.542 5.71989C12.7933 5.82776 13.0327 5.96431 13.253 6.12589C13.314 6.16868 13.3699 6.22102 13.44 6.24878C13.5501 6.29885 13.6772 6.30568 13.7937 6.2761C13.9166 6.24287 14.0277 6.1664 14.0977 6.05944C14.1578 5.97159 14.1901 5.86462 14.1879 5.75812C14.1911 5.63841 14.1446 5.52006 14.0723 5.42631C14.0313 5.37578 13.9789 5.33573 13.927 5.29704C13.5852 5.04123 13.2088 4.83186 12.811 4.67665C12.2234 4.44816 11.5884 4.34438 10.9584 4.36941C10.6326 4.38034 10.308 4.42768 9.99167 4.50596C9.50607 4.6284 9.03994 4.83004 8.61938 5.10223C8.52289 5.16139 8.43276 5.22967 8.34127 5.29613C8.17332 5.42312 8.01173 5.56012 7.86335 5.71078C7.77641 5.79271 7.69631 5.88147 7.61711 5.97068C7.31261 6.32207 7.05862 6.71806 6.872 7.14409C6.63532 7.67982 6.50378 8.26061 6.48238 8.84548C6.47374 9.02574 6.48148 9.20644 6.4924 9.38624C6.50924 9.56373 6.52835 9.74174 6.56613 9.91601C6.5898 10.0521 6.62576 10.1859 6.66263 10.3189C6.88612 11.0958 7.31806 11.8109 7.89976 12.3721C8.09002 12.5542 8.29348 12.7235 8.51151 12.8714C8.73635 13.028 8.97758 13.1591 9.22656 13.2733C9.83604 13.5473 10.5056 13.6866 11.1737 13.6784C11.4419 13.6784 11.7099 13.6529 11.974 13.6047C12.6949 13.4768 13.3831 13.1714 13.963 12.7249C14.0372 12.673 14.0986 12.602 14.1382 12.5201C14.1979 12.3985 14.2056 12.2538 14.1651 12.125Z" fill="#007CFF"/>
<path fill-rule="evenodd" clip-rule="evenodd" d="M15.7589 8.45129C15.7024 7.98703 15.5755 7.5314 15.3829 7.10492C15.3397 6.99841 15.2619 6.9051 15.1626 6.84593C15.0593 6.78221 14.9327 6.75672 14.8121 6.7731C14.6433 6.79404 14.4881 6.90237 14.4107 7.05394C14.3465 7.1741 14.3333 7.31885 14.3693 7.44993C14.387 7.51002 14.418 7.56555 14.4412 7.62381C14.509 7.78812 14.5686 7.95653 14.6115 8.12904C14.8112 8.90738 14.743 9.7535 14.4125 10.4868C14.3975 10.5236 14.3789 10.5596 14.3684 10.5983C14.331 10.7262 14.3438 10.8686 14.4043 10.9874C14.489 11.16 14.6734 11.2792 14.8659 11.281C15.0679 11.2897 15.2696 11.1727 15.3597 10.9911C15.5536 10.5765 15.6842 10.1322 15.748 9.67886C15.8044 9.27239 15.8071 8.85866 15.7589 8.45129Z" fill="#6FBBF8"/>
<path fill-rule="evenodd" clip-rule="evenodd" d="M17.462 8.16275C17.3686 7.45588 17.1515 6.7654 16.8284 6.12953C16.7906 6.05716 16.7359 5.99207 16.6686 5.94473C16.563 5.8669 16.4265 5.83094 16.2958 5.84597C16.1033 5.86553 15.9262 5.9989 15.8579 6.18051C15.8006 6.32388 15.8106 6.49093 15.8812 6.62748C15.9085 6.678 15.9321 6.7308 15.9577 6.78269C16.0323 6.94837 16.1038 7.11587 16.1616 7.28838C16.4301 8.06671 16.5111 8.90784 16.4042 9.72348C16.3263 10.3202 16.1456 10.9038 15.8711 11.439C15.8092 11.5697 15.8011 11.7244 15.852 11.8596C15.8912 11.9702 15.9704 12.0658 16.0705 12.1263C16.2007 12.2096 16.3682 12.2287 16.5152 12.1819C16.6067 12.1532 16.6895 12.0985 16.7532 12.0271C16.8029 11.9697 16.8375 11.9014 16.8693 11.8332C17.2754 11.0084 17.4975 10.0945 17.5175 9.17546C17.5252 8.83732 17.5084 8.4982 17.462 8.16275Z" fill="#6FBBF8"/>
</svg>
