<svg width="24" height="24" viewBox="0 0 24 24" fill="none" xmlns="http://www.w3.org/2000/svg">
<rect width="24" height="24" rx="4" fill="white"/>
<path d="M3 5.5C3 4.11929 4.11929 3 5.5 3H18.5C19.8807 3 21 4.11929 21 5.5V18.5C21 19.8807 19.8807 21 18.5 21H5.5C4.11929 21 3 19.8807 3 18.5V5.5Z" fill="#FFEB00"/>
<path fill-rule="evenodd" clip-rule="evenodd" d="M6.4167 9.75C5.11623 9.75 4.0625 10.5828 4.0625 11.6101C4.0625 12.2266 4.44285 12.7716 5.0276 13.1103L4.75044 14.1455C4.72398 14.2447 4.83445 14.3241 4.91978 14.2666L6.12234 13.4549C6.21892 13.4642 6.31682 13.4695 6.4167 13.4695C7.71717 13.4695 8.7709 12.6374 8.7709 11.6101C8.7709 10.5828 7.71717 9.75 6.4167 9.75ZM10.8562 10.6398V12.6745C10.9059 12.6805 11.0302 12.6931 11.1486 12.6931C11.7955 12.6931 12.0449 12.2386 12.0449 11.5236C12.0449 10.8952 11.8762 10.5155 11.3603 10.5155C11.1923 10.5155 11.0057 10.5651 10.8562 10.6398ZM10.8559 13.3089V14.575H9.94773V9.88045H10.5887L10.7005 10.1794C10.893 9.98628 11.1854 9.78122 11.6583 9.78122C12.5487 9.78122 12.9713 10.4467 12.9654 11.5236C12.9654 12.6494 12.3119 13.3711 11.3785 13.3711C11.1979 13.3711 11.0617 13.3585 10.8559 13.3089ZM15.3169 12.4047V11.7829H14.9002C14.4332 11.7829 14.197 11.9503 14.197 12.2863C14.197 12.5416 14.3273 12.666 14.5952 12.666C14.8439 12.666 15.1614 12.5416 15.3169 12.4047ZM14.8006 11.2041H15.3172V11.0917C15.3172 10.7186 15.1056 10.544 14.7384 10.544C14.4586 10.544 14.0975 10.6253 13.8051 10.7682L13.5564 10.1583C13.8798 9.93475 14.3779 9.7793 14.8191 9.7793C15.6903 9.7793 16.1633 10.2397 16.1633 11.1168V13.2759H15.5223L15.429 12.9895C15.0619 13.2567 14.7259 13.3691 14.4209 13.3691C13.7555 13.3691 13.3824 12.9709 13.3824 12.2989C13.3824 11.5832 13.8798 11.2041 14.8006 11.2041ZM18.8734 12.9855C18.5558 13.8315 18.1762 14.4474 17.6225 14.79L17.0629 14.2734C17.3863 13.9936 17.6165 13.7197 17.8156 13.3526L16.6084 10.0611L17.5107 9.81834L18.282 12.4881L19.0473 9.80577L19.9377 10.0551L18.8734 12.9855Z" fill="black"/>
</svg>
