<svg viewBox="0 0 208 40" fill="none" xmlns="http://www.w3.org/2000/svg" class="homeIcon___dg2Cg"><path d="M76.33 21.555v17.71c0 .404-.331.735-.736.735H68.02a.737.737 0 0 1-.735-.736V21.733c0-5.17-4.122-9.467-9.19-9.573a9.314 9.314 0 0 0-6.777 2.679 9.326 9.326 0 0 0-2.824 6.716v17.71c0 .404-.33.735-.735.735h-7.575a.737.737 0 0 1-.736-.736v-17.71c0-10.17 8.274-18.445 18.441-18.445 10.168 0 18.442 8.276 18.442 18.446ZM208 17.79v21.473a.738.738 0 0 1-.736.736h-7.494a.738.738 0 0 1-.735-.736V17.77c0-2.309-1.411-4.414-3.509-5.236a6.438 6.438 0 0 0-2.348-.458 5.863 5.863 0 0 0-5.854 5.858v20.511c0 .405-.33.736-.735.736h-7.494a.738.738 0 0 1-.736-.736V17.767c0-2.308-1.411-4.414-3.508-5.235a6.424 6.424 0 0 0-2.346-.456 5.864 5.864 0 0 0-5.856 5.858v21.33a.738.738 0 0 1-.736.736h-7.494a.737.737 0 0 1-.735-.736V17.791c0-6.66 4.429-12.48 10.774-14.152a15.85 15.85 0 0 1 4.047-.532c3.784 0 7.383 1.423 10.133 4.007a.3.3 0 0 0 .407 0 14.752 14.752 0 0 1 10.133-4.007c1.347 0 2.709.178 4.048.532 6.342 1.67 10.772 7.489 10.772 14.15l.002.002ZM136.758 3.109h-.083c-4.716 0-9.044 1.696-12.52 4.91-5.183 4.79-20.033 20.032-20.181 20.182a9.341 9.341 0 0 1-6.645 2.753c-5.18 0-9.395-4.215-9.395-9.397v-4.645a.3.3 0 0 1 .298-.299h13.883c.404 0 .735-.33.735-.736V8.301a.738.738 0 0 0-.735-.736H88.232a.3.3 0 0 1-.298-.298V.736A.737.737 0 0 0 87.198 0h-7.575a.738.738 0 0 0-.735.736v21.21h.004a18.483 18.483 0 0 0 4.145 11.264 18.513 18.513 0 0 0 10.342 6.364 18.51 18.51 0 0 0 3.95.426c4.927 0 9.557-1.92 13.041-5.404l5.93-5.932a2.218 2.218 0 0 1 1.985-.625c.74.132 1.348.6 1.665 1.284C122.964 35.808 129.53 40 136.68 40c4.686 0 9.152-1.76 12.575-4.958a18.467 18.467 0 0 0 5.861-13.8c-.164-9.957-8.4-18.091-18.36-18.133h.002Zm6.123 25.506a9.4 9.4 0 0 1-6.201 2.337c-5.181 0-9.396-4.215-9.396-9.397a9.38 9.38 0 0 1 2.339-6.2l.062-.075.03-.03c.208-.23.431-.453.664-.661a9.372 9.372 0 0 1 6.303-2.43c5.181 0 9.393 4.216 9.393 9.396a9.402 9.402 0 0 1-3.194 7.06ZM18.228 3.114c-9.22 0-17.96 7.884-18.222 18.13C-.264 31.86 8.1 40 17.8 40c3.324 0 7.728-.928 10.04-3.236v2.5c0 .405.331.736.736.736h7.575c.405 0 .736-.33.736-.736v-17.71c0-5.008-1.89-9.695-5.473-13.195S23.252 3.114 18.23 3.114h-.002Zm9.61 18.44c0 5.183-4.214 9.398-9.395 9.398-5.181 0-9.395-4.215-9.395-9.397 0-5.183 4.214-9.398 9.395-9.398 5.181 0 9.395 4.215 9.395 9.398Z" fill="url(#antom-logo_svg__a)"></path><defs><linearGradient id="antom-logo_svg__a" x1="-0.001" y1="20" x2="208" y2="20" gradientUnits="userSpaceOnUse"><stop stop-color="#1436D8"></stop><stop offset="0.47" stop-color="#4866FF"></stop><stop offset="1" stop-color="#0FF"></stop></linearGradient></defs></svg>