<svg width="24" height="24" viewBox="0 0 24 24" fill="none" xmlns="http://www.w3.org/2000/svg">
<path fill-rule="evenodd" clip-rule="evenodd" d="M11.9994 7.8098L11.9998 7.81016L12.0002 7.8098H11.9994ZM11.9997 7.81003C10.7069 8.78575 9.87663 10.3 9.87663 12.0001C9.87663 13.6999 10.7069 15.214 11.9994 16.1899H11.9999C13.293 15.214 14.123 13.6999 14.123 12.0001C14.123 10.3 13.293 8.78575 11.9997 7.81003V7.81003Z" fill="#EA5E1A"/>
<path fill-rule="evenodd" clip-rule="evenodd" d="M20.3517 15.1508H20.4579V15.4192H20.5162V15.1508H20.6228V15.0961H20.3517V15.1508ZM20.7564 15.3182L20.661 15.0957H20.5775V15.4194H20.6365V15.1756L20.7262 15.3861H20.787L20.8766 15.1749V15.4194H20.935V15.0957H20.8522L20.7564 15.3182ZM15.4352 6.67036C14.1387 6.67036 12.9455 7.09632 11.9998 7.80991C13.2928 8.78587 14.1231 10.3001 14.1231 12C14.1231 13.7001 13.2928 15.2143 11.9998 16.19C12.9455 16.9036 14.1387 17.3296 15.4352 17.3296C18.5052 17.3296 20.9935 14.9435 20.9935 12C20.9935 9.05666 18.5052 6.67036 15.4352 6.67036V6.67036Z" fill="#EC8F1C"/>
<path fill-rule="evenodd" clip-rule="evenodd" d="M9.87672 12C9.87672 10.3002 10.707 8.78592 11.9998 7.80996C11.0543 7.09637 9.8611 6.67041 8.56436 6.67041C5.49461 6.67041 3.00635 9.05647 3.00635 12C3.00635 14.9436 5.49461 17.3296 8.56436 17.3296C9.8611 17.3296 11.0543 16.9037 11.9998 16.1901C10.707 15.2141 9.87672 13.6999 9.87672 12" fill="#DB141F"/>
</svg>
