<svg width="24" height="24" viewBox="0 0 24 24" fill="none" xmlns="http://www.w3.org/2000/svg">
<rect width="24" height="24" rx="4" fill="white"/>
<g clip-path="url(#clip0_4298_23217)">
<path d="M21 3H3V21H21V3Z" fill="#00DE5A"/>
<path d="M9.27512 8.83456L8.29283 11.3391H9.12769L9.24597 11.0083H10.1888L10.3071 11.3391H11.1428L10.1588 8.83456H9.27512ZM9.43712 10.4066L9.71655 9.62399L9.99683 10.4066H9.43712Z" fill="black"/>
<path d="M14.616 10.3877H15.7586V9.78599H14.616V9.44827H15.7706V8.83456H13.818V11.34H15.7954V10.7254H14.616V10.3877Z" fill="black"/>
<path d="M12.1363 10.482L11.5466 8.83456H10.7117L11.694 11.34H12.5777L13.56 8.83456H12.7251L12.1363 10.482Z" fill="black"/>
<path d="M7.22401 10.1751L6.29058 8.83456H5.51744V11.34H6.32744V9.99856L7.26087 11.34H8.03487V8.83456H7.22401V10.1751Z" fill="black"/>
<path d="M17.9366 10.4803L18.0128 10.4486C18.3043 10.3268 18.4517 10.0628 18.4517 9.72856C18.4517 9.41141 18.3368 9.17741 18.1088 9.03256C17.8971 8.89713 17.6228 8.83456 17.2457 8.83456H16.188V11.3391H16.9714V10.6397H17.2534L17.7326 11.3391H18.5674L17.9366 10.4803ZM17.3914 10.0011H16.9628V9.47313H17.3914C17.4614 9.47313 17.5286 9.50094 17.5781 9.55045C17.6276 9.59996 17.6554 9.66711 17.6554 9.73713C17.6554 9.80715 17.6276 9.87429 17.5781 9.9238C17.5286 9.97331 17.4614 10.0011 17.3914 10.0011Z" fill="black"/>
<path d="M15.6737 12.8768L14.9777 14.4634L14.1891 12.8768H13.5831L14.6974 15.078L14.2371 16.1066H14.8286L16.2626 12.8777L15.6737 12.8768ZM13.248 15.33H12.672V15.1011C12.463 15.2847 12.1932 15.384 11.9151 15.3797C11.2294 15.3797 10.6868 14.8191 10.6868 14.1034C10.6868 13.3877 11.2286 12.8263 11.9143 12.8263C12.1925 12.8223 12.4623 12.9219 12.6711 13.1057V12.8768H13.2471L13.248 15.33ZM12.7397 14.1034C12.7397 13.6405 12.4166 13.29 11.9888 13.29C11.5611 13.29 11.238 13.6405 11.238 14.1034C11.238 14.5663 11.5603 14.9168 11.9888 14.9168C12.4174 14.9168 12.7397 14.5663 12.7397 14.1034ZM7.8257 16.1057H8.4257V15.1217C8.63102 15.2923 8.89077 15.3836 9.1577 15.3788C9.84341 15.3788 10.386 14.8183 10.386 14.1026C10.386 13.3868 9.84684 12.8254 9.1577 12.8254C8.87907 12.8214 8.60895 12.9213 8.39998 13.1057V12.8768H7.8257V16.1057ZM9.0857 13.29C9.51427 13.29 9.83656 13.6405 9.83656 14.1034C9.83656 14.5663 9.51427 14.9143 9.0857 14.9143C8.65713 14.9143 8.33484 14.5637 8.33484 14.1008C8.33484 13.638 8.65713 13.29 9.0857 13.29Z" fill="black"/>
</g>
<defs>
<clipPath id="clip0_4298_23217">
<rect width="18" height="18" fill="white" transform="translate(3 3)"/>
</clipPath>
</defs>
</svg>
