<svg width="24" height="24" viewBox="0 0 24 24" fill="none" xmlns="http://www.w3.org/2000/svg">
<rect width="24" height="24" rx="4" fill="white"/>
<g clip-path="url(#clip0_4298_22968)">
<path d="M16.2182 3H6.40846C4.15101 3 2.31366 4.83804 2.31366 7.09549V16.9045C2.31366 19.1626 4.15101 21 6.40846 21H16.2182C18.4763 21 20.313 19.162 20.313 16.9045V7.09549C20.313 4.83735 18.4763 3 16.2182 3Z" fill="white"/>
<path d="M16.2483 3.69903H6.37898C4.52313 3.69903 3.01199 5.20948 3.01199 7.06533V16.9353C3.01199 18.7919 4.52244 20.3017 6.37898 20.3017H16.2483C18.1042 20.3017 19.6146 18.7919 19.6146 16.9353V7.06533C19.6146 5.20948 18.1042 3.69903 16.2483 3.69903" fill="#295DAB"/>
<path d="M9.4698 10.4769H8.63302C8.38768 10.4769 8.06969 10.6503 7.97786 10.8812L8.06147 10.4385H7.03896L6.58459 12.9852H7.60847L7.89151 11.3733H8.99282C8.99282 11.3733 8.85233 12.1717 8.78928 12.5287C8.72623 12.8865 8.96952 12.9728 9.08945 12.9728H9.62469L9.97352 10.9922C9.94473 10.7078 9.75284 10.4762 9.4698 10.4762" fill="white"/>
<path d="M6.30293 10.4385L6.11035 11.5316L6.88819 10.4385H6.30293Z" fill="white"/>
<path d="M7.51662 6.44991H4.09275L3.94403 7.29423H5.13923L4.66019 10.0129H5.69092L6.1727 7.29423H7.3679L7.51662 6.44991Z" fill="white"/>
<path d="M6.77991 10.0129C6.49619 10.0129 6.30567 9.78058 6.35501 9.49686L6.61817 8.00765C6.66752 7.72393 6.94165 7.4916 7.224 7.4916H8.90235C9.18608 7.4916 9.37797 7.72393 9.32588 8.00765L9.06409 9.49686C9.01338 9.78058 8.74062 10.0129 8.45758 10.0129H6.77922H6.77991ZM8.22526 9.17818L8.37534 8.32701H7.45769L7.30829 9.17818H8.22526V9.17818Z" fill="white"/>
<path d="M13.5324 9.17818L13.6832 8.32701H15.012L15.1593 7.49229H13.4495C13.1657 7.49229 12.8916 7.72393 12.8423 8.00765L12.5798 9.49686C12.5298 9.78058 12.721 10.0129 13.0054 10.0129H14.6673L14.8139 9.17818H13.5324Z" fill="white"/>
<path d="M11.4435 9.17818H10.3189L10.6156 7.49229H9.71924L9.36699 9.49686C9.31696 9.78058 9.50748 10.0129 9.7912 10.0129H10.665C10.9487 10.0129 11.1804 9.84432 11.364 9.6257C11.364 9.6257 11.4641 9.91765 11.608 9.98275C11.7526 10.0492 12.1898 10.0335 12.1898 10.0335L12.6387 7.49229H11.7423L11.4449 9.17818H11.4435Z" fill="white"/>
<path d="M17.9054 7.50463H17.0693C16.8233 7.50463 16.5862 7.6787 16.4937 7.90897L16.7342 6.53969H15.7919L15.1799 10.0122H16.1236L16.4073 8.40034H17.4298C17.4298 8.40034 17.2893 9.19806 17.227 9.5558C17.1639 9.91217 17.4072 9.99989 17.5251 9.99989H17.9815L18.3303 8.0193C18.3797 7.73489 18.1898 7.50326 17.9054 7.50326" fill="white"/>
<path d="M16.5341 12.8967L16.8034 11.3774H15.2896L15.0209 12.8967H16.5341ZM14.5446 13.8322C14.1636 13.8322 13.9059 13.5183 13.9724 13.138L14.326 11.1362C14.3925 10.7537 14.7605 10.4412 15.1436 10.4412H17.279C17.6594 10.4412 17.9178 10.7537 17.8506 11.1362L17.4977 13.138C17.4305 13.5183 17.0625 13.8322 16.6814 13.8322H14.5453H14.5446Z" fill="white"/>
<path d="M12.4743 12.8967H10.9597L11.2284 11.3774H13.6839L13.8456 10.4419H11.0831C10.7007 10.4419 10.334 10.7544 10.2668 11.1368L9.91322 13.1387C9.84606 13.5197 10.1024 13.8329 10.4841 13.8329H12.6202C13.0027 13.8329 13.3707 13.519 13.4371 13.1387L13.6537 11.9099H12.6483L12.4756 12.8974L12.4743 12.8967Z" fill="white"/>
<path d="M10.7198 15.063L9.38549 17.8126H8.53912L8.43838 16.1486L7.63038 17.8126H6.77921L6.61679 15.063H7.21919L7.32404 17.2198L8.36231 15.063H8.9743L9.07984 17.2198L10.1174 15.063H10.7198Z" fill="#FEDB00"/>
<path d="M13.2398 17.8126H12.6518L13.235 15.0624H13.8237L13.2398 17.8126Z" fill="#FEDB00"/>
<path d="M14.2061 17.8126H13.6181L14.2013 15.0624H14.7893L14.2061 17.8126Z" fill="#FEDB00"/>
<path d="M18.2714 17.8126H17.7978C17.5779 17.8126 17.425 17.7913 17.3387 17.7481C17.2523 17.705 17.2098 17.6179 17.2098 17.4877C17.2098 17.4144 17.2208 17.328 17.2434 17.2294L17.7026 15.063H18.2906L18.1426 15.747H18.7121L18.6017 16.2445H18.0425L17.8753 17.0292C17.8595 17.1087 17.8513 17.1615 17.8513 17.1869C17.8513 17.241 17.8698 17.276 17.9061 17.2924C17.9424 17.3082 18.0165 17.3164 18.1282 17.3164H18.3769L18.2714 17.8139V17.8126Z" fill="#FEDB00"/>
<path d="M5.73275 16.531H5.07552H4.68557C4.69859 16.4673 4.71367 16.4166 4.7308 16.3782C4.74794 16.3398 4.77055 16.3103 4.79797 16.2898C4.82469 16.2692 4.86033 16.2555 4.90282 16.2493C4.94599 16.2432 4.99945 16.2397 5.06318 16.2397H5.53195C5.68477 16.2397 5.76153 16.2877 5.76153 16.383C5.76153 16.3926 5.75193 16.4419 5.73275 16.531M6.24948 15.8087C6.16313 15.7641 6.0103 15.7415 5.79031 15.7415H4.94874C4.70613 15.7415 4.52247 15.7868 4.39637 15.8779C4.27027 15.969 4.18529 16.1198 4.14074 16.3295L3.95433 17.2239C3.94131 17.278 3.93172 17.3267 3.92555 17.3698C3.91938 17.413 3.91595 17.4521 3.91595 17.487C3.91595 17.5508 3.92555 17.6029 3.94474 17.6426C3.96393 17.6824 3.99545 17.7152 4.04068 17.7406C4.08523 17.766 4.14622 17.7838 4.22229 17.7934C4.29905 17.803 4.39431 17.8078 4.50944 17.8078H5.93903L6.04457 17.315H4.83908C4.72738 17.315 4.65336 17.3061 4.61704 17.289C4.58003 17.2712 4.56221 17.2355 4.56221 17.1814C4.56221 17.143 4.56838 17.0923 4.5814 17.0286V17.0272H4.83018V17.0286H6.19739L6.34542 16.3302C6.36735 16.2281 6.379 16.1404 6.379 16.067C6.379 15.9396 6.33583 15.8532 6.25016 15.8087" fill="#FEDB00"/>
<path d="M10.8823 17.315C10.7959 17.315 10.7534 17.2787 10.7534 17.2047C10.7534 17.1601 10.7712 17.1197 10.8062 17.0827C10.8411 17.0464 10.8877 17.0279 10.9446 17.0279H11.5806V17.0265H11.8287L11.767 17.315H10.8823V17.315ZM12.5681 15.9087C12.5476 15.8676 12.514 15.8347 12.4674 15.8107C12.4215 15.7868 12.3605 15.7703 12.2858 15.7607C12.2104 15.7511 12.1179 15.7463 12.0062 15.7463H10.5807L10.4752 16.2439H11.6807C11.7924 16.2439 11.8664 16.2521 11.9027 16.2678C11.939 16.2836 11.9575 16.3186 11.9575 16.3727C11.9575 16.3981 11.9493 16.4508 11.9335 16.5303H11.462H11.0008C10.8638 16.5303 10.75 16.5372 10.6588 16.5516C10.5677 16.566 10.4923 16.5941 10.432 16.6352C10.371 16.677 10.3237 16.7359 10.2888 16.812C10.2538 16.8887 10.2216 16.9888 10.1928 17.1135L10.1688 17.2287C10.1462 17.3274 10.1353 17.4137 10.1353 17.487C10.1353 17.5542 10.1455 17.6083 10.1661 17.6495C10.1867 17.6913 10.2202 17.7235 10.2668 17.7475C10.3128 17.7714 10.3737 17.7879 10.4484 17.7975C10.5231 17.8071 10.6164 17.8119 10.7281 17.8119H12.2488L12.5647 16.3295C12.5867 16.2308 12.5983 16.1445 12.5983 16.0712C12.5983 16.004 12.588 15.9499 12.5675 15.9087" fill="#FEDB00"/>
<path d="M16.4779 16.531H15.8584H15.4307C15.4438 16.4673 15.4588 16.4166 15.476 16.3782C15.4931 16.3398 15.5157 16.3103 15.5431 16.2898C15.5699 16.2692 15.6055 16.2555 15.648 16.2493C15.6912 16.2432 15.7446 16.2397 15.8084 16.2397H16.2771C16.43 16.2397 16.5067 16.2877 16.5067 16.383C16.5067 16.3926 16.4971 16.4419 16.4779 16.531M16.9947 15.8087C16.9083 15.7641 16.7555 15.7415 16.5355 15.7415H15.6939C15.4513 15.7415 15.2676 15.7868 15.1415 15.8779C15.0154 15.969 14.9305 16.1198 14.8859 16.3295L14.6995 17.2239C14.6865 17.278 14.6769 17.3267 14.6707 17.3698C14.6646 17.413 14.6611 17.4521 14.6611 17.487C14.6611 17.5508 14.6707 17.6029 14.6899 17.6426C14.7091 17.6824 14.7406 17.7152 14.7859 17.7406C14.8304 17.766 14.8907 17.7838 14.9675 17.7934C15.0442 17.803 15.1395 17.8078 15.2546 17.8078H16.6842L16.7897 17.315H15.5843C15.4726 17.315 15.3985 17.3061 15.3622 17.289C15.3252 17.2712 15.3074 17.2355 15.3074 17.1814C15.3074 17.143 15.3136 17.0923 15.3266 17.0286V17.0272H15.5754V17.0286H16.9426L17.0906 16.3302C17.1132 16.2281 17.1242 16.1404 17.1242 16.067C17.1242 15.9396 17.081 15.8532 16.9953 15.8087" fill="#FEDB00"/>
<path d="M20.8619 3.75454H20.6173V4.47618H20.5576V3.75454H20.313V3.69903H20.8619V3.75454Z" fill="#295DAB"/>
<path d="M21.6864 4.47618H21.6274V3.78538L21.3396 4.26305H21.33L21.0422 3.78538V4.47618H20.9832V3.69903H21.0565L21.3341 4.15888L21.6117 3.69903H21.6864V4.47618Z" fill="#295DAB"/>
</g>
<defs>
<clipPath id="clip0_4298_22968">
<rect width="19.3727" height="18" fill="white" transform="translate(2.31366 3)"/>
</clipPath>
</defs>
</svg>
