<svg width="24" height="24" viewBox="0 0 24 24" fill="none" xmlns="http://www.w3.org/2000/svg">
<rect width="24" height="24" rx="4" fill="white"/>
<g clip-path="url(#clip0_4298_22925)">
<path d="M7.77883 12.045C7.77883 12.0442 7.77931 12.0432 7.77955 12.0423L9.43971 7.28675C9.45982 7.22729 9.48987 7.17166 9.52857 7.12225C9.5532 7.08953 9.58626 7.06413 9.62422 7.04877L9.62386 7.04775H9.62446L9.12405 5.36848C9.09013 5.26604 9.02623 5.17614 8.94063 5.11044C8.85503 5.04474 8.75166 5.00627 8.64394 5H5.09752C4.89373 5 4.77867 5.16504 4.83984 5.36848L6.84246 12.0434C6.87512 12.1415 6.93514 12.2283 7.01545 12.2935C7.09576 12.3587 7.19301 12.3995 7.29577 12.4113C7.40226 12.4008 7.50375 12.361 7.58901 12.2963C7.67427 12.2317 7.73997 12.1447 7.77883 12.045Z" fill="#EC0000"/>
<path d="M9.79844 7.02275C9.79441 7.02275 9.79123 7.02275 9.78738 7.02311Z" fill="#981C1F"/>
<path d="M10.9485 11.4918L9.72387 7.38336C9.72321 7.38126 9.72315 7.37927 9.72255 7.37735L9.62438 7.04877C9.58634 7.06419 9.55323 7.0897 9.52861 7.12255C9.4899 7.17196 9.45986 7.22759 9.43975 7.28705L7.77989 12.0423C7.77989 12.0432 7.77935 12.0442 7.77917 12.045C7.74034 12.1447 7.67466 12.2317 7.58941 12.2964C7.50416 12.3611 7.40267 12.4009 7.29617 12.4115C7.30116 12.4115 7.30609 12.4128 7.31101 12.4129H11.2233L10.9485 11.4918Z" fill="#9D1D22"/>
<path d="M9.78733 7.02311H9.76396C9.72287 7.02315 9.68199 7.029 9.64254 7.04048L9.62451 7.04721V7.04823C9.67679 7.02998 9.73198 7.02147 9.78733 7.02311Z" fill="#FFDC00"/>
<path d="M9.62482 7.04963L9.62589 7.04928L9.6253 7.04727L9.62411 7.04762L9.62482 7.04963Z" fill="#FFDC00"/>
<path d="M9.78737 7.02311C9.73222 7.02156 9.67724 7.03009 9.62515 7.04829L10.9493 11.49L10.9486 11.4918L11.2227 12.411L11.3877 12.9645C11.4214 13.0664 11.4847 13.1559 11.5696 13.2216C11.6545 13.2872 11.7571 13.326 11.8642 13.333C12.0659 13.3312 12.2908 13.1695 12.3709 12.969C12.3714 12.9675 12.3719 12.966 12.3725 12.9645L14.1395 7.93076L13.9432 7.279C13.8722 7.08241 13.7912 7.01254 13.5407 7.02305L9.78737 7.02311Z" fill="#FFDC00"/>
<path d="M9.72244 7.37711C9.72304 7.37928 9.7231 7.38126 9.72376 7.38312L10.9484 11.4915L10.9491 11.4897L9.62493 7.04805H9.62439L9.72244 7.37711Z" fill="#FFDC00"/>
<path d="M11.8607 13.3333H11.8674C11.8663 13.3333 11.8652 13.3329 11.8641 13.3329C11.8629 13.3329 11.8618 13.3333 11.8607 13.3333Z" fill="#F4812B"/>
<path d="M16.3613 13.3333C16.5649 13.3333 16.7939 13.1682 16.8731 12.9645L19.2463 6.20493C19.3255 6.00126 19.2244 5.83621 19.0209 5.83621H15.2572C15.0535 5.83621 14.8246 6.00126 14.7451 6.20493L14.1393 7.93082L12.3723 12.9646C12.3717 12.9661 12.3712 12.9675 12.3707 12.9691C12.2905 13.1695 12.0657 13.3312 11.864 13.333L16.3613 13.3333Z" fill="#FF8624"/>
<path fill-rule="evenodd" clip-rule="evenodd" d="M3.02408 15.1272H2.32828V15.703H2V16.3404H2.32828V17.0874C2.32828 17.6738 2.80293 18.0471 3.38926 18.0471H3.79943V17.4368H3.38715C3.33947 17.4368 3.29224 17.4274 3.24819 17.4092C3.20413 17.3909 3.1641 17.3641 3.13038 17.3304C3.09667 17.2967 3.06993 17.2567 3.05169 17.2126C3.03345 17.1685 3.02407 17.1213 3.02408 17.0736V16.3406L3.4807 16.3391C3.56683 16.3355 3.64822 16.2987 3.70771 16.2363C3.7672 16.1739 3.80015 16.0909 3.79961 16.0046V15.7032H3.02456L3.02408 15.1272ZM7.0184 17.101C7.0184 17.1487 7.009 17.196 6.99075 17.24C6.97249 17.2841 6.94573 17.3242 6.91199 17.3579C6.87825 17.3916 6.8382 17.4184 6.79412 17.4367C6.75005 17.4549 6.7028 17.4643 6.65509 17.4643C6.60738 17.4643 6.56014 17.4549 6.51606 17.4367C6.47198 17.4184 6.43193 17.3916 6.39819 17.3579C6.36445 17.3242 6.33769 17.2841 6.31944 17.24C6.30118 17.196 6.29178 17.1487 6.29178 17.101V16.0387C6.2918 15.9945 6.2831 15.9508 6.26619 15.91C6.24927 15.8692 6.22448 15.8322 6.19322 15.801C6.16197 15.7698 6.12486 15.7451 6.08404 15.7283C6.04322 15.7115 5.99948 15.7029 5.95533 15.703H5.59286V17.0102C5.59286 17.5982 5.91087 18.0747 6.65365 18.0747C7.39733 18.0747 7.71528 17.5982 7.71528 17.0102V15.703H7.01834L7.0184 17.101ZM10.115 16.9452C10.1101 16.2191 9.71599 15.6481 8.98258 15.6481C8.35275 15.6481 7.84446 16.1568 7.84446 16.8577C7.84446 17.6137 8.30642 18.0611 8.9875 18.0747C9.19798 18.0743 9.40446 18.0171 9.58512 17.9091C9.76579 17.8011 9.91394 17.6463 10.0139 17.4611L9.37653 17.2947C9.33191 17.3571 9.27269 17.4078 9.20403 17.4421C9.13536 17.4765 9.05934 17.4935 8.98258 17.4918C8.7339 17.4918 8.53329 17.3136 8.52656 17.0976H10.115C10.1169 17.0636 10.115 16.9811 10.115 16.9452ZM8.52662 16.6197C8.53335 16.4034 8.73396 16.227 8.98264 16.227C9.23432 16.227 9.43655 16.4017 9.44003 16.6197H8.52662ZM5.02329 15.703H4.92872C4.80183 15.703 4.67619 15.728 4.55898 15.7766C4.44177 15.8251 4.33528 15.8963 4.2456 15.9861C4.15593 16.0759 4.08482 16.1824 4.03636 16.2997C3.9879 16.417 3.96302 16.5426 3.96315 16.6695V18.0471H4.65877V16.7035C4.65865 16.6556 4.66801 16.6082 4.6863 16.564C4.7046 16.5198 4.73147 16.4797 4.76536 16.4459C4.79925 16.4122 4.83949 16.3855 4.88376 16.3674C4.92803 16.3492 4.97545 16.3401 5.02329 16.3404H5.43022V15.703H5.02329Z" fill="#EC0000"/>
<path d="M13.5998 16.4943C13.5998 16.0269 13.2386 15.6481 12.697 15.6481C12.3647 15.6481 12.1748 15.752 12.0205 15.9171C11.8661 15.752 11.6656 15.6481 11.3415 15.6481C10.7956 15.6481 10.4505 16.0214 10.4413 16.4943C10.4413 16.4947 10.4413 17.8461 10.4413 17.8461C10.4413 17.9066 10.4653 17.9647 10.5082 18.0075C10.551 18.0503 10.609 18.0744 10.6696 18.0744C10.7301 18.0744 10.7882 18.0503 10.831 18.0075C10.8738 17.9647 10.8979 17.9066 10.8979 17.8461V16.4955C10.9054 16.3822 10.9556 16.2761 11.0383 16.1984C11.121 16.1207 11.2301 16.0773 11.3436 16.0769C11.4571 16.0766 11.5665 16.1192 11.6497 16.1964C11.7329 16.2735 11.7838 16.3793 11.792 16.4925V16.494V17.8458C11.792 17.9065 11.8161 17.9646 11.859 18.0075C11.9018 18.0503 11.96 18.0744 12.0206 18.0744C12.0812 18.0744 12.1393 18.0503 12.1822 18.0075C12.225 17.9646 12.2491 17.9065 12.2491 17.8458V16.494V16.4926C12.2575 16.3793 12.3085 16.2735 12.3918 16.1963C12.4751 16.1192 12.5846 16.0765 12.6981 16.0769C12.812 16.0755 12.9221 16.1184 13.0051 16.1964C13.0881 16.2745 13.1376 16.3817 13.1433 16.4955V17.8461C13.1433 17.9066 13.1673 17.9647 13.2101 18.0075C13.2529 18.0503 13.311 18.0744 13.3716 18.0744C13.4321 18.0744 13.4902 18.0503 13.533 18.0075C13.5758 17.9647 13.5999 17.9066 13.5999 17.8461L13.5998 16.4943Z" fill="#FF8624"/>
<path d="M14.7746 15.6481C14.5061 15.6484 14.2488 15.7551 14.0589 15.945C13.8691 16.1348 13.7623 16.3921 13.7619 16.6606V17.0531C13.7609 17.1869 13.7864 17.3196 13.8368 17.4435C13.8873 17.5674 13.9618 17.68 14.0561 17.775C14.1503 17.87 14.2624 17.9453 14.3859 17.9968C14.5094 18.0482 14.6419 18.0747 14.7757 18.0747C14.9094 18.0747 15.0419 18.0482 15.1654 17.9968C15.2889 17.9453 15.401 17.87 15.4952 17.775C15.5895 17.68 15.664 17.5674 15.7145 17.4435C15.7649 17.3196 15.7904 17.1869 15.7894 17.0531V16.6606C15.7887 16.3918 15.6815 16.1343 15.4913 15.9445C15.3011 15.7547 15.0433 15.6481 14.7746 15.6481ZM15.331 17.0652C15.331 17.3848 15.111 17.6448 14.7753 17.6448C14.4371 17.6448 14.2195 17.3848 14.2195 17.0652V16.6536C14.2195 16.334 14.4486 16.0768 14.7753 16.0768C15.1097 16.0768 15.331 16.334 15.331 16.6536V17.0652Z" fill="#FF8624"/>
<path d="M17.838 16.4943C17.838 16.0269 17.521 15.6481 16.9095 15.6481C16.298 15.6481 15.9517 16.0266 15.9517 16.4943V17.8461C15.9517 17.9066 15.9758 17.9647 16.0186 18.0075C16.0614 18.0503 16.1195 18.0744 16.18 18.0744C16.2406 18.0744 16.2987 18.0503 16.3415 18.0075C16.3843 17.9647 16.4083 17.9066 16.4083 17.8461V16.527C16.4083 16.2958 16.6186 16.0771 16.9094 16.0771C16.9701 16.0746 17.0308 16.0843 17.0877 16.1058C17.1447 16.1272 17.1967 16.1599 17.2407 16.2019C17.2847 16.2439 17.3198 16.2943 17.3439 16.3502C17.368 16.406 17.3806 16.4662 17.381 16.527V17.8463C17.381 17.9069 17.405 17.9649 17.4479 18.0078C17.4907 18.0506 17.5488 18.0746 17.6093 18.0746C17.6699 18.0746 17.7279 18.0506 17.7707 18.0078C17.8136 17.9649 17.8376 17.9069 17.8376 17.8463L17.838 16.4943Z" fill="#FF8624"/>
<path d="M22.0895 15.8764C22.0895 15.8159 22.0654 15.7578 22.0226 15.715C21.9798 15.6722 21.9217 15.6481 21.8612 15.6481C21.8006 15.6481 21.7425 15.6722 21.6997 15.715C21.6569 15.7578 21.6329 15.8159 21.6329 15.8764V17.2271C21.6329 17.4527 21.4235 17.6449 21.1378 17.6442C20.8862 17.6436 20.6446 17.4583 20.6446 17.2271V15.8764C20.6446 15.8159 20.6205 15.7578 20.5777 15.715C20.5349 15.6722 20.4768 15.6481 20.4163 15.6481C20.3557 15.6481 20.2976 15.6722 20.2548 15.715C20.212 15.7578 20.188 15.8159 20.188 15.8764V17.2283C20.197 17.7241 20.55 18.0742 21.1384 18.0742C21.2251 18.0742 21.4837 18.066 21.633 17.8906C21.635 18.0624 21.637 18.2865 21.584 18.3798C21.5153 18.5008 21.4046 18.5955 21.1907 18.5955C21.0729 18.5955 20.9158 18.5241 20.8771 18.5114C20.7487 18.4698 20.6416 18.4878 20.5906 18.5921C20.5352 18.7052 20.637 18.824 20.7175 18.8767C20.844 18.9469 20.9846 18.9877 21.129 18.9961C21.3384 19.012 21.6797 18.9874 21.9241 18.6406C22.0425 18.4602 22.1006 18.2469 22.0899 18.0314L22.0895 15.8764Z" fill="#FF8624"/>
<path d="M19.0654 15.6481C18.4251 15.6481 18.0014 16.1695 18.0016 16.8707C18.0016 17.5613 18.3381 17.9816 18.8367 18.0562C19.3903 18.1454 19.7422 17.8874 19.8141 17.8151C19.8547 17.7752 19.8797 17.722 19.8845 17.6652C19.8893 17.6085 19.8736 17.5519 19.8402 17.5057C19.8021 17.4651 19.75 17.4406 19.6944 17.4371C19.6389 17.4335 19.5841 17.4514 19.5413 17.4869C19.4023 17.5967 19.2284 17.6529 19.0514 17.6451C18.9579 17.6446 18.866 17.6206 18.7842 17.5754C18.6936 17.5304 18.6161 17.4629 18.5591 17.3794C18.502 17.2958 18.4674 17.1991 18.4584 17.0983H19.832C19.9496 17.0983 20.0252 16.9998 20.0252 16.8613C20.0252 16.6228 19.9477 15.6481 19.0654 15.6481ZM19.6044 16.7428H18.4585C18.4585 16.7428 18.4505 16.0774 19.0559 16.0774C19.6239 16.0774 19.6044 16.7428 19.6044 16.7428Z" fill="#FF8624"/>
</g>
<defs>
<clipPath id="clip0_4298_22925">
<rect width="20.0897" height="14" fill="white" transform="translate(2 5)"/>
</clipPath>
</defs>
</svg>
