<svg width="24" height="24" viewBox="0 0 24 24" fill="none" xmlns="http://www.w3.org/2000/svg">
<rect width="24" height="24" rx="4" fill="white"/>
<mask id="mask0_4298_23251" style="mask-type:alpha" maskUnits="userSpaceOnUse" x="1" y="9" width="9" height="6">
<path fill-rule="evenodd" clip-rule="evenodd" d="M1.86574 9.13289V14.9226H9.36813V9.13289H1.86574Z" fill="white"/>
</mask>
<g mask="url(#mask0_4298_23251)">
<path fill-rule="evenodd" clip-rule="evenodd" d="M7.62971 9.13289L6.02331 13.0829L5.85209 12.2706L5.27658 9.61131C5.1773 9.24325 4.8891 9.13289 4.53254 9.13289H1.88673L1.86566 9.23805C2.50952 9.38865 3.08503 9.59789 3.5895 9.86794L5.04822 14.9126L6.78438 14.9226L9.36812 9.13289H7.62971Z" fill="#1A4E9D"/>
</g>
<path fill-rule="evenodd" clip-rule="evenodd" d="M9.00629 14.9752H10.6465L11.6732 9.13289H10.0323L9.00629 14.9752Z" fill="#1A4E9D"/>
<mask id="mask1_4298_23251" style="mask-type:alpha" maskUnits="userSpaceOnUse" x="11" y="9" width="6" height="6">
<path fill-rule="evenodd" clip-rule="evenodd" d="M11.6743 9.00002H16.5982V15H11.6743L11.6743 9.00002L11.6743 9.00002Z" fill="white"/>
</mask>
<g mask="url(#mask1_4298_23251)">
<path fill-rule="evenodd" clip-rule="evenodd" d="M14.9819 11.4348C14.4084 11.1658 14.057 10.9864 14.0608 10.714C14.0608 10.4725 14.358 10.214 15.0003 10.214C15.537 10.206 15.9256 10.3189 16.2284 10.4368L16.3758 10.5039L16.5982 9.24394C16.273 9.12623 15.7634 8.99986 15.1271 8.99986C13.5059 8.99986 12.3636 9.78814 12.354 10.9183C12.3448 11.7533 13.1693 12.2194 13.7919 12.4972C14.4306 12.7822 14.6453 12.9639 14.6421 13.2186C14.6381 13.6081 14.1321 13.7862 13.6606 13.7862C13.0039 13.7862 12.6545 13.6981 12.116 13.4811L11.9042 13.3885L11.6743 14.6898C12.0577 14.8519 12.7661 14.9927 13.5021 15.0001C15.2268 15.0001 16.3467 14.2207 16.3597 13.0139C16.3655 12.3529 15.9285 11.8496 14.9819 11.4348" fill="#1A4E9D"/>
</g>
<path fill-rule="evenodd" clip-rule="evenodd" d="M18.7827 13.0277C18.9183 12.3786 19.4362 11.3155 19.4362 11.3155C19.4268 11.3311 19.5709 10.9353 19.654 10.717L19.765 11.2839C19.765 11.2839 20.0792 12.595 20.1448 13.0277H18.7827ZM20.8064 9.13289H19.5379C19.1453 9.13289 18.8513 9.25298 18.6785 9.63186L16.2415 14.9752H17.9647C17.9647 14.9752 18.2466 14.2293 18.3103 14.072C18.4988 14.072 20.1724 14.0893 20.4117 14.0893C20.461 14.2927 20.6116 14.9752 20.6116 14.9752H22.1342L20.8064 9.13289Z" fill="#1A4E9D"/>
</svg>
